<svg width="29" height="26" viewBox="0 0 29 26" fill="none" xmlns="http://www.w3.org/2000/svg">
<path d="M14.5 20.9444C16.3125 20.9444 17.8534 20.3123 19.1226 19.0479C20.3918 17.7835 21.026 16.249 21.025 14.4444C21.025 12.6389 20.3904 11.1039 19.1211 9.83955C17.8519 8.57518 16.3115 7.94348 14.5 7.94444C12.6875 7.94444 11.1466 8.57663 9.8774 9.841C8.60817 11.1054 7.97403 12.6399 7.975 14.4444C7.975 16.25 8.60962 17.785 9.87885 19.0493C11.1481 20.3137 12.6885 20.9454 14.5 20.9444ZM14.5 18.0556C13.485 18.0556 12.6271 17.7065 11.9263 17.0083C11.2254 16.3102 10.875 15.4556 10.875 14.4444C10.875 13.4333 11.2254 12.5787 11.9263 11.8806C12.6271 11.1824 13.485 10.8333 14.5 10.8333C15.515 10.8333 16.3729 11.1824 17.0737 11.8806C17.7746 12.5787 18.125 13.4333 18.125 14.4444C18.125 15.4556 17.7746 16.3102 17.0737 17.0083C16.3729 17.7065 15.515 18.0556 14.5 18.0556ZM2.9 26C2.1025 26 1.41955 25.7169 0.851152 25.1507C0.282752 24.5844 -0.000964205 23.9046 2.4618e-06 23.1111V5.77778C2.4618e-06 4.98333 0.284202 4.303 0.852602 3.73678C1.421 3.17056 2.10347 2.88793 2.9 2.88889H7.4675L10.15 0H18.85L21.5325 2.88889H26.1C26.8975 2.88889 27.5804 3.172 28.1488 3.73822C28.7172 4.30444 29.001 4.9843 29 5.77778V23.1111C29 23.9056 28.7158 24.5859 28.1474 25.1521C27.579 25.7183 26.8965 26.001 26.1 26H2.9ZM2.9 23.1111H26.1V5.77778H20.2275L17.5812 2.88889H11.4188L8.7725 5.77778H2.9V23.1111Z" fill="white"/>
</svg>
