<svg width="128" height="40" viewBox="0 0 128 40" fill="none" xmlns="http://www.w3.org/2000/svg">
<path d="M4.5908 6.80605C3.86594 7.24902 3.22161 7.8128 3.1008 8.13496C2.97999 8.41685 2.85918 8.17523 2.85918 7.53091C2.81891 6.56442 2.65783 6.44361 1.40946 6.44361H0V15.5044V24.5652H1.40946H2.81891V19.4911C2.81891 16.7125 3.02026 13.652 3.26188 12.6855C3.86594 10.3498 5.35593 8.69874 6.56404 9.0209C7.2889 9.18198 7.65133 8.98063 8.21511 8.05442C8.89971 6.84632 8.89971 6.84632 7.85268 6.44361C6.40296 5.87983 6.04052 5.9201 4.5908 6.80605Z" fill="black"/>
<path d="M47.921 4.43017V8.81961L46.4713 7.85313C40.9945 4.14828 33.6653 7.16854 32.2559 13.7326C31.4908 17.2763 32.6586 20.6993 35.4372 23.0752C38.5783 25.7331 42.404 26.015 45.9477 23.8001L47.921 22.592V23.5585C47.921 24.4444 48.0821 24.5652 49.3304 24.5652H50.7399V12.2828V0.000450134H49.3304H47.921V4.43017ZM44.5383 9.70556C50.6996 12.6453 48.6056 22.5517 41.8402 22.5517C39.3837 22.5517 38.3367 22.149 36.7662 20.5382C34.2694 17.9609 34.1486 14.0547 36.5245 11.2358C38.5783 8.81961 41.5583 8.25583 44.5383 9.70556Z" fill="black"/>
<path d="M82.5934 0.564803C81.9491 1.32994 82.1907 3.22263 82.9961 3.74615C84.0432 4.39047 85.7345 3.74615 86.0164 2.53804C86.1775 1.97426 86.097 1.20913 85.8956 0.846694C85.3721 0.00102043 83.2378 -0.20033 82.5934 0.564803Z" fill="black"/>
<path d="M17.3565 6.44337C15.1416 6.96688 12.806 8.89985 11.5979 11.2355C6.52381 20.9004 18.6049 30.243 26.2965 22.5514C28.4308 20.4171 28.6321 19.652 27.2227 19.0077C26.3367 18.605 26.1354 18.7258 25.1689 19.9741C23.7594 21.8266 22.1889 22.5514 19.7324 22.5514C16.3095 22.5514 13.9335 20.6587 13.41 17.5177L13.1684 16.1082H21.1016H28.9946V15.182C28.9946 11.6382 26.0146 7.69174 22.5111 6.68499C20.2157 6.0004 19.4505 5.96012 17.3565 6.44337ZM22.2694 9.42336C23.7192 9.98714 25.7729 12.202 25.7729 13.1282C25.7729 13.5712 24.6857 13.692 19.7324 13.692C16.4303 13.692 13.6919 13.5712 13.6919 13.3698C13.6919 13.2088 14.0543 12.4839 14.4973 11.759C16.1081 9.14147 19.3297 8.17498 22.2694 9.42336Z" fill="black"/>
<path d="M96.6482 6.52415C95.8831 6.72551 94.675 7.36983 93.9501 7.89334L92.6615 8.85982L92.5407 7.77253C92.4601 6.84632 92.2185 6.6047 91.1312 6.52415L89.8023 6.40335V15.4641V24.5652H91.2118H92.6212V18.8066C92.6212 13.8131 92.742 12.9271 93.4266 11.7593C94.4736 10.0277 96.4872 8.85982 98.3799 8.85982C102.044 8.85982 102.689 10.3096 102.689 18.5247V24.5652H104.098H105.508V18.6052C105.508 15.3433 105.306 12.0009 105.065 11.1552C104.501 9.10145 102.528 6.96713 100.756 6.44361C99.0242 5.96037 98.5409 5.96037 96.6482 6.52415Z" fill="black"/>
<path d="M115.978 6.52429C112.032 7.65185 109.133 11.5581 109.133 15.7059C109.133 17.357 110.421 20.337 111.67 21.6659C114.609 24.8069 119.804 25.2902 123.751 22.7129L125.241 21.7464V22.7532C125.241 24.1223 124.314 26.2164 123.388 27.0621C122.18 28.1091 119.24 28.7534 117.025 28.4313C115.576 28.1896 114.69 27.7467 113.361 26.5386C111.67 24.968 109.535 24.364 109.535 25.4915C109.535 26.6594 111.629 28.9548 113.643 29.9615C115.294 30.8072 116.301 31.0085 118.556 31.0085C121.979 31.0085 124.113 30.1629 125.925 28.0688C127.737 25.9748 128.1 23.6391 127.979 14.4978L127.858 6.6451L126.569 6.52429C125.321 6.40348 125.241 6.48402 125.241 7.61158C125.241 9.06131 124.838 9.18212 123.831 8.05456C123.066 7.20888 119.683 6.00078 118.234 6.08132C117.75 6.08132 116.744 6.28267 115.978 6.52429ZM122.341 9.94725C124.475 11.5178 125.321 13.2494 125.16 15.7462C124.878 19.6121 122.502 21.7464 118.475 21.7464C113.482 21.7464 110.461 16.5918 112.878 12.2829C114.65 9.10158 119.562 7.89347 122.341 9.94725Z" fill="black"/>
<path d="M53.6801 7.32911C54.0023 8.49694 60.6871 25.0077 61.0093 25.2896C61.412 25.6923 61.8952 24.7661 64.2309 19.0075C65.5195 15.8664 66.6874 13.1683 66.8485 13.0877C67.0095 13.0072 68.2579 15.7053 69.6674 19.1685C71.0768 22.5915 72.4057 25.3299 72.6071 25.2493C72.9695 25.1285 80.5403 7.49019 80.5403 6.72506C80.5403 6.24181 78.2449 6.40289 77.8422 6.92641C77.6006 7.2083 76.3925 10.1077 75.1038 13.4099C73.8152 16.6718 72.6071 19.2088 72.446 19.0477C72.3252 18.8464 71.2379 16.3496 70.0701 13.4904C67.3317 6.68479 67.0498 6.16127 66.6068 6.88614C66.4055 7.2083 65.1168 10.148 63.7477 13.4904C61.4925 19.0477 61.2509 19.4504 60.8482 18.5242C60.5663 17.9604 59.4388 15.061 58.2709 12.081C56.1769 6.72506 56.1366 6.64452 54.8077 6.5237C53.5593 6.40289 53.4788 6.44316 53.6801 7.32911Z" fill="black"/>
<path d="M82.8356 6.72551C82.6745 6.84632 82.5537 10.9539 82.5537 15.7863V24.5652H83.9632H85.3726V15.5044V6.44361H84.2451C83.6007 6.44361 82.9564 6.56443 82.8356 6.72551Z" fill="black"/>
<path d="M89.279 30.847C88.9166 31.2497 89.3595 31.8135 90.0441 31.8135C90.3663 31.8135 90.6079 31.5316 90.6079 31.2094C90.6079 30.6054 89.7622 30.3638 89.279 30.847Z" fill="black"/>
<path d="M35.8409 31.6128C35.8409 32.2571 35.5992 32.6195 35.2368 32.6195C34.9146 32.6195 34.6328 32.7806 34.6328 32.982C34.6328 33.1833 34.9146 33.4249 35.2368 33.586C35.6798 33.7471 35.8409 34.4719 35.8409 36.4452C35.8409 38.7809 35.9214 39.0627 36.6463 39.0627C37.0892 39.0627 37.4517 38.8614 37.4517 38.66C37.4517 38.4184 37.2906 38.2573 37.049 38.2573C36.3644 38.2573 36.5657 33.8276 37.2503 33.586C37.5725 33.4249 37.8544 33.1833 37.8544 32.982C37.8544 32.7806 37.5725 32.6195 37.2503 32.6195C36.8879 32.6195 36.6463 32.2571 36.6463 31.6128C36.6463 31.049 36.4852 30.606 36.2436 30.606C36.0422 30.606 35.8409 31.049 35.8409 31.6128Z" fill="black"/>
<path d="M104.501 33.6263C102.488 35.5995 103.897 39.0627 106.716 39.0627C108.367 39.0627 109.938 37.4922 109.938 35.8411C109.938 34.1901 108.367 32.6195 106.716 32.6195C105.951 32.6195 105.105 32.982 104.501 33.6263ZM108.166 34.4317C109.253 35.519 109.213 36.8076 108.005 37.7338C106.716 38.7406 105.025 38.0963 104.501 36.3646C104.34 35.6801 104.541 35.1968 105.266 34.4317C105.83 33.8679 106.474 33.4249 106.716 33.4249C106.958 33.4249 107.602 33.8679 108.166 34.4317Z" fill="black"/>
<path d="M19.0076 33.1022C18.1216 33.9881 18.4438 35.3573 19.7324 36.1225C20.417 36.4849 20.9405 37.0487 20.9405 37.3306C20.9405 38.0957 19.813 38.4178 19.1686 37.8943C18.7257 37.5319 18.5243 37.5319 18.323 37.8943C17.6786 38.8608 20.3365 39.5051 21.2627 38.5789C22.1084 37.7333 21.7862 36.4849 20.4976 35.3976C19.0478 34.2298 19.2089 33.2633 20.7794 33.666C21.8265 33.9479 22.1486 33.2633 21.1016 32.8606C20.1351 32.4981 19.5311 32.5787 19.0076 33.1022Z" fill="black"/>
<path d="M50.7403 34.9144C50.7403 37.7736 51.5054 39.0623 53.1565 39.0623C53.8008 39.0623 54.4452 38.8609 54.6062 38.6193C54.7673 38.2971 54.9687 38.3374 55.2103 38.6998C55.8949 39.8677 56.4184 38.3777 56.2976 35.599C56.1365 32.2163 55.4519 31.9344 55.17 35.156C54.9284 37.6125 54.4049 38.3374 52.9552 38.1763C52.2706 38.0555 52.1095 37.6931 51.9484 35.4782C51.6665 32.015 50.7403 31.572 50.7403 34.9144Z" fill="black"/>
<path d="M74.9024 32.0155C74.9024 33.3041 74.8219 33.4249 74.1373 33.0222C72.9292 32.4182 71.8822 32.539 70.7143 33.4652C69.3049 34.5525 69.2646 36.9285 70.5935 38.1768C71.6003 39.103 73.8554 39.3849 74.3387 38.6198C74.54 38.2976 74.7011 38.2976 74.9024 38.6601C75.6676 39.9084 76.1105 38.4184 76.1105 34.5928C76.1105 31.3309 75.9897 30.606 75.5065 30.606C75.0635 30.606 74.9024 31.049 74.9024 32.0155ZM74.0165 34.0693C75.6676 35.1968 74.7414 38.2574 72.7681 38.2574C70.7143 38.2574 69.7881 35.7203 71.2781 34.2304C72.2446 33.2639 72.8084 33.2236 74.0165 34.0693Z" fill="black"/>
<path d="M89.3996 35.8411C89.3996 37.7338 89.5607 39.0627 89.8023 39.0627C90.0439 39.0627 90.205 37.7338 90.205 35.8411C90.205 33.9484 90.0439 32.6195 89.8023 32.6195C89.5607 32.6195 89.3996 33.9484 89.3996 35.8411Z" fill="black"/>
</svg>
