<svg width="40" height="40" viewBox="0 0 40 40" fill="none" xmlns="http://www.w3.org/2000/svg">
<path d="M1.15002 11.6617C6.48184 7.3422 13.1381 4.98985 20 5C27.1417 5 33.7 7.495 38.85 11.6617L36.7567 14.255C32.017 10.4151 26.0999 8.32406 20 8.33334C13.65 8.33334 7.82336 10.55 3.24336 14.255L1.15002 11.6617ZM6.38502 18.145C10.236 15.025 15.0438 13.3259 20 13.3333C24.956 13.326 29.7635 15.0244 33.615 18.1433L31.52 20.7367C28.2614 18.0972 24.1935 16.66 20 16.6667C15.6367 16.6667 11.6284 18.1917 8.48002 20.7367L6.38502 18.1433V18.145ZM11.6217 24.6283C13.9914 22.708 16.95 21.6622 20 21.6667C23.1734 21.6667 26.0884 22.775 28.3784 24.6267L26.2834 27.22C24.506 25.7804 22.2873 24.9965 20 25C17.62 25 15.4334 25.8317 13.7167 27.22L11.6217 24.6267V24.6283ZM16.8584 31.1117C17.7468 30.3913 18.8562 29.9988 20 30C21.19 30 22.2834 30.4167 23.1417 31.11L20 35L16.8584 31.1117Z" fill="#0C3D4E"/>
</svg>
