<svg width="40" height="40" viewBox="0 0 40 40" fill="none" xmlns="http://www.w3.org/2000/svg">
<g clip-path="url(#clip0_113_49)">
<path d="M9.16665 13.3333V25.8333H9.58331C9.58331 25.8333 11.2766 23.9133 12.0833 22.5C13.1166 20.6883 13.9583 18.3333 13.9583 18.3333H14.375C14.375 18.3333 15.2166 20.6883 16.25 22.5C17.0566 23.9133 18.75 25.8333 18.75 25.8333H19.1666V13.3333M30.8333 17.5V15.8333C30.8333 15.3913 30.6577 14.9674 30.3452 14.6548C30.0326 14.3423 29.6087 14.1667 29.1666 14.1667H25C24.558 14.1667 24.134 14.3423 23.8215 14.6548C23.5089 14.9674 23.3333 15.3913 23.3333 15.8333V24.1667C23.3333 24.6087 23.5089 25.0326 23.8215 25.3452C24.134 25.6577 24.558 25.8333 25 25.8333H29.1666C29.6087 25.8333 30.0326 25.6577 30.3452 25.3452C30.6577 25.0326 30.8333 24.6087 30.8333 24.1667V22.5M20 39.1667C9.41498 39.1667 0.833313 30.585 0.833313 20C0.833313 9.415 9.41498 0.833332 20 0.833332C30.585 0.833332 39.1666 9.415 39.1666 20C39.1666 30.585 30.585 39.1667 20 39.1667Z" stroke="#0C3D4E"/>
</g>
<defs>
<clipPath id="clip0_113_49">
<rect width="40" height="40" fill="white"/>
</clipPath>
</defs>
</svg>
