<svg width="36" height="38" viewBox="0 0 36 38" fill="none" xmlns="http://www.w3.org/2000/svg">
<path d="M18 32.3001L17.424 31.6161C17.064 31.2361 8.64 20.7481 8.64 14.4401C8.64 8.96806 12.816 4.56006 18 4.56006C23.184 4.56006 27.36 8.96806 27.36 14.4401C27.36 20.7481 18.936 31.2361 18.576 31.6921L18 32.3001ZM18 6.08006C13.608 6.08006 10.08 9.80406 10.08 14.4401C10.08 19.3041 16.128 27.5121 18 29.9441C19.872 27.5121 25.92 19.3041 25.92 14.4401C25.92 9.80406 22.392 6.08006 18 6.08006Z" fill="white"/>
<path d="M18 18.2399C15.984 18.2399 14.4 16.5679 14.4 14.4399C14.4 12.3119 15.984 10.6399 18 10.6399C20.016 10.6399 21.6 12.3119 21.6 14.4399C21.6 16.5679 20.016 18.2399 18 18.2399ZM18 12.1599C16.776 12.1599 15.84 13.1479 15.84 14.4399C15.84 15.7319 16.776 16.7199 18 16.7199C19.224 16.7199 20.16 15.7319 20.16 14.4399C20.16 13.1479 19.224 12.1599 18 12.1599Z" fill="white"/>
</svg>
