<svg width="28" height="28" viewBox="0 0 28 28" fill="none" xmlns="http://www.w3.org/2000/svg">
<rect x="6.125" y="6.125" width="15.75" height="15.75" rx="3.5" stroke="white"/>
<path d="M17.4981 13.8843C17.5133 14.3437 17.4379 14.8015 17.2761 15.2317C17.1143 15.662 16.8694 16.0561 16.5554 16.3917C16.2413 16.7273 15.8642 16.9977 15.4456 17.1875C15.027 17.3774 14.5751 17.4829 14.1157 17.4981C13.6563 17.5133 13.1985 17.4379 12.7683 17.2761C12.338 17.1143 11.9439 16.8694 11.6083 16.5554C11.2727 16.2413 11.0023 15.8642 10.8125 15.4456C10.6226 15.027 10.5171 14.5751 10.5019 14.1157C10.4867 13.6563 10.5621 13.1985 10.7239 12.7683C10.8857 12.338 11.1306 11.9439 11.4446 11.6083C11.7587 11.2727 12.1358 11.0023 12.5544 10.8125C12.973 10.6226 13.4249 10.5171 13.8843 10.5019C14.3437 10.4867 14.8015 10.5621 15.2317 10.7239C15.662 10.8857 16.0561 11.1306 16.3917 11.4446C16.7273 11.7587 16.9977 12.1358 17.1875 12.5544C17.3774 12.973 17.4829 13.4249 17.4981 13.8843Z" stroke="white" stroke-linecap="round" stroke-linejoin="round"/>
<path d="M18.3633 9.625H18.375" stroke="white" stroke-linecap="round" stroke-linejoin="round"/>
</svg>
