<svg width="40" height="30" viewBox="0 0 40 30" fill="none" xmlns="http://www.w3.org/2000/svg">
<path d="M14.1667 0.496094C12.3833 0.496094 10.83 1.28927 9.84333 2.37206C8.85667 3.45486 8.33333 4.85335 8.33333 6.36665C8.33333 7.87995 8.85667 9.27975 9.84333 10.3625C10.83 11.4453 12.3833 12.2372 14.1667 12.2372C15.95 12.2372 17.5033 11.444 18.49 10.3612C19.4767 9.27845 20 7.87995 20 6.36665C20 4.85335 19.4767 3.45355 18.49 2.37076C17.5033 1.28797 15.95 0.496094 14.1667 0.496094ZM20 6.36665C20 7.87995 20.5233 9.27975 21.51 10.3625C22.4967 11.4453 24.0517 12.2372 25.8333 12.2372C27.6167 12.2372 29.17 11.444 30.1567 10.3612C31.1433 9.27845 31.6667 7.87995 31.6667 6.36665C31.6667 4.85335 31.1433 3.45355 30.1567 2.37076C29.17 1.28797 27.6167 0.496094 25.8333 0.496094C24.05 0.496094 22.4967 1.28927 21.51 2.37206C20.5233 3.45486 20 4.85335 20 6.36665ZM14.1667 3.10523C14.6867 3.10523 15.26 3.30874 15.7833 3.88014C16.3 4.45024 16.6667 5.35822 16.6667 6.36665C16.6667 7.37508 16.3 8.28437 15.7833 8.85316C15.26 9.42456 14.6867 9.62807 14.1667 9.62807C13.6467 9.62807 13.0733 9.42456 12.55 8.85316C12.0333 8.28306 11.6667 7.37508 11.6667 6.36665C11.6667 5.35822 12.0333 4.44894 12.55 3.88014C13.0733 3.30874 13.6467 3.10523 14.1667 3.10523ZM25.8333 3.10523C26.3533 3.10523 26.9267 3.30874 27.45 3.88014C27.9667 4.45024 28.3333 5.35822 28.3333 6.36665C28.3333 7.37508 27.9667 8.28437 27.45 8.85316C26.9267 9.42456 26.3533 9.62807 25.8333 9.62807C25.3133 9.62807 24.74 9.42456 24.2167 8.85316C23.7 8.28306 23.3333 7.37508 23.3333 6.36665C23.3333 5.35822 23.7 4.44894 24.2167 3.88014C24.74 3.30874 25.3133 3.10523 25.8333 3.10523ZM5.83333 9.62807C4.05 9.62807 2.49667 10.4212 1.51 11.504C0.523334 12.5868 0 13.9853 0 15.4986C0 17.0119 0.523334 18.4117 1.51 19.4945C2.49667 20.5773 4.05 21.3692 5.83333 21.3692C7.61667 21.3692 9.17 20.576 10.1567 19.4932C11.1433 18.4104 11.6667 17.0119 11.6667 15.4986C11.6667 13.9853 11.1433 12.5855 10.1567 11.5027C9.17 10.4199 7.61667 9.62807 5.83333 9.62807ZM34.1667 9.62807C32.3833 9.62807 30.83 10.4212 29.8433 11.504C28.8567 12.5868 28.3333 13.9853 28.3333 15.4986C28.3333 17.0119 28.8567 18.4117 29.8433 19.4945C30.83 20.5773 32.3833 21.3692 34.1667 21.3692C35.95 21.3692 37.5033 20.576 38.49 19.4932C39.4767 18.4104 40 17.0119 40 15.4986C40 13.9853 39.4767 12.5855 38.49 11.5027C37.5033 10.4199 35.95 9.62807 34.1667 9.62807ZM5.83333 12.2372C6.35333 12.2372 6.92667 12.4407 7.45 13.0121C7.96667 13.5822 8.33333 14.4902 8.33333 15.4986C8.33333 16.5071 7.96667 17.4163 7.45 17.9851C6.92667 18.5565 6.35333 18.76 5.83333 18.76C5.31333 18.76 4.74 18.5565 4.21667 17.9851C3.7 17.4163 3.33333 16.5071 3.33333 15.4986C3.33333 14.4902 3.7 13.5809 4.21667 13.0121C4.74 12.4407 5.31333 12.2372 5.83333 12.2372ZM34.1667 12.2372C34.6867 12.2372 35.26 12.4407 35.7833 13.0121C36.3 13.5822 36.6667 14.4902 36.6667 15.4986C36.6667 16.5071 36.3 17.4163 35.7833 17.9851C35.26 18.5565 34.6867 18.76 34.1667 18.76C33.6467 18.76 33.0733 18.5565 32.55 17.9851C32.0333 17.415 31.6667 16.5071 31.6667 15.4986C31.6667 14.4902 32.0333 13.5809 32.55 13.0121C33.0733 12.4407 33.6467 12.2372 34.1667 12.2372ZM20 14.8463C17.7783 14.8463 16.2283 15.9748 15.4667 16.9663C14.71 17.9577 14.2433 18.7822 13.8 19.1266C13.545 19.3314 11.9367 19.805 10.26 20.4743C9.42167 20.8095 8.57667 21.257 7.865 21.9419C7.14833 22.6268 6.665 23.5726 6.665 24.6332C6.665 27.138 9.29833 29.1992 12.4983 29.1992C13.9417 29.1992 15.4483 28.8339 16.9233 28.5078C18.405 28.1738 20 27.892 20 27.892C20 27.892 21.595 28.1738 23.0733 28.5052C24.55 28.8313 26.0567 29.1966 27.5 29.1966C30.7 29.1966 33.3333 27.1354 33.3333 24.6306C33.3333 23.5948 32.845 22.6477 32.1333 21.9823C31.425 21.3131 30.5717 20.8995 29.74 20.5538C28.0733 19.8624 26.435 19.3145 26.1983 19.1266C25.7983 18.8174 25.3483 17.9656 24.5817 16.9689C23.8167 15.9683 22.2333 14.8463 20 14.8463ZM20 17.4555C21.1 17.4555 21.2217 17.6642 21.7167 18.3113C22.2167 18.957 22.59 20.0542 23.8 21.0026C25.175 22.0723 26.9117 22.3072 28.1767 22.8342C28.81 23.0977 29.2933 23.3782 29.5833 23.6496C29.8717 23.9196 30 24.1662 30 24.628C30 25.7238 28.9 26.5849 27.5 26.5849C27.0167 26.5849 25.46 26.2978 24.01 25.9717C22.56 25.6495 21.36 25.2803 20 25.2803C18.64 25.2803 17.44 25.6495 15.99 25.9717C14.54 26.2978 12.9833 26.5849 12.5 26.5849C11.1 26.5849 10 25.7238 10 24.628C10 24.1023 10.14 23.8322 10.4167 23.5661C10.6933 23.3013 11.2033 23.039 11.8233 22.7925C13.0633 22.2967 14.79 22.1011 16.1983 20.9987C17.42 20.0372 17.7867 18.9049 18.2817 18.2656C18.7683 17.6264 18.885 17.4503 19.9983 17.4503L20 17.4555Z" fill="#0C3D4E"/>
</svg>
