<svg width="28" height="28" viewBox="0 0 28 28" fill="none" xmlns="http://www.w3.org/2000/svg">
<path d="M19.5417 21.8748C11.0833 21.8748 6.125 16.9165 6.125 8.45818C6.125 7.81384 6.64734 7.2915 7.29167 7.2915L10.8751 7.29151C11.1512 7.29151 11.3746 7.51523 11.3901 7.79094C11.4449 8.76595 11.6493 10.0526 12.0035 10.9004C12.1152 11.1677 12.0365 11.4969 11.785 11.6406L10.2084 12.5415C10.2084 15.1665 12.8334 17.7915 15.7501 17.7915L16.3883 16.3024C16.5115 16.015 16.8696 15.9049 17.1599 16.021C18.0074 16.36 19.2568 16.5563 20.2089 16.6098C20.4846 16.6253 20.7083 16.8487 20.7083 17.1248V20.7082C20.7083 21.3525 20.186 21.8748 19.5417 21.8748Z" fill="white"/>
</svg>
