<svg width="40" height="40" viewBox="0 0 40 40" fill="none" xmlns="http://www.w3.org/2000/svg">
<path d="M12.5 8.75C12.5 7.0924 13.1585 5.50269 14.3306 4.33058C15.5027 3.15848 17.0924 2.5 18.75 2.5C20.4076 2.5 21.9973 3.15848 23.1694 4.33058C24.3415 5.50269 25 7.0924 25 8.75V22.375C26.2058 23.6057 27.0215 25.165 27.3447 26.8574C27.6679 28.5498 27.4842 30.3 26.8168 31.8884C26.1493 33.4769 25.0277 34.8329 23.5927 35.7865C22.1576 36.74 20.473 37.2487 18.75 37.2487C17.027 37.2487 15.3424 36.74 13.9073 35.7865C12.4723 34.8329 11.3507 33.4769 10.6832 31.8884C10.0158 30.3 9.83213 28.5498 10.1553 26.8574C10.4785 25.165 11.2942 23.6057 12.5 22.375V8.75ZM18.75 5C17.7554 5 16.8016 5.39509 16.0984 6.09835C15.3951 6.80161 15 7.75544 15 8.75V23.4675L14.585 23.8425C13.6414 24.6863 12.9763 25.7967 12.6777 27.0268C12.379 28.2569 12.461 29.5487 12.9126 30.7312C13.3642 31.9137 14.1642 32.9313 15.2068 33.6491C16.2494 34.367 17.4854 34.7513 18.7513 34.7513C20.0171 34.7513 21.2531 34.367 22.2957 33.6491C23.3383 32.9313 24.1383 31.9137 24.5899 30.7312C25.0416 29.5487 25.1235 28.2569 24.8248 27.0268C24.5262 25.7967 23.8611 24.6863 22.9175 23.8425L22.5 23.465V8.75C22.5 7.75544 22.1049 6.80161 21.4017 6.09835C20.6984 5.39509 19.7446 5 18.75 5ZM20 15C20 14.6685 19.8683 14.3505 19.6339 14.1161C19.3995 13.8817 19.0815 13.75 18.75 13.75C18.4185 13.75 18.1005 13.8817 17.8661 14.1161C17.6317 14.3505 17.5 14.6685 17.5 15V25.2125C16.666 25.5074 15.9631 26.0876 15.5155 26.8506C15.0679 27.6136 14.9044 28.5103 15.054 29.3822C15.2036 30.254 15.6566 31.045 16.3329 31.6151C17.0093 32.1853 17.8654 32.498 18.75 32.498C19.6346 32.498 20.4907 32.1853 21.1671 31.6151C21.8434 31.045 22.2964 30.254 22.446 29.3822C22.5956 28.5103 22.4321 27.6136 21.9845 26.8506C21.5369 26.0876 20.834 25.5074 20 25.2125V15Z" fill="#0C3D4E"/>
</svg>
