<svg width="24" height="24" viewBox="0 0 24 24" fill="none" xmlns="http://www.w3.org/2000/svg">
<circle cx="12" cy="12" r="11.5" stroke="black"/>
<g clip-path="url(#clip0_113_194)">
<path d="M11.451 4.2447C10.6007 4.26743 9.67804 4.37573 8.94686 4.53752C8.17298 4.71001 7.55439 4.92796 6.97333 5.23148C6.45568 5.50158 6.02733 5.81847 5.74909 6.13537C4.93768 7.066 4.49639 8.23329 4.32039 9.91805C4.28156 10.2951 4.26215 10.6682 4.24662 11.3447C4.21686 12.6618 4.27898 13.6312 4.44462 14.4642C4.65427 15.5098 5.00627 16.3348 5.53815 17.0248C5.68439 17.2133 6.01439 17.5543 6.19686 17.7054C6.65886 18.0865 7.18556 18.3726 7.80804 18.5825L7.99568 18.6454L8.00215 19.6134C8.00992 20.6885 8.00862 20.6738 8.09921 20.8757C8.15227 20.996 8.20662 21.0642 8.29592 21.127L8.36709 21.1765H8.59874C8.81874 21.1765 8.83427 21.1752 8.89251 21.1444C9.03615 21.0695 9.20827 20.9024 9.60686 20.4491C9.71039 20.3315 9.86698 20.1536 9.95498 20.0547C10.1607 19.8207 10.4442 19.4877 10.5943 19.3019L10.7133 19.1548L10.8233 19.1628C11.5998 19.223 12.4565 19.2243 13.2563 19.1642C14.1039 19.1 14.9774 18.9596 15.5663 18.7898C15.6802 18.7577 15.882 18.7002 16.0153 18.6641C17.2279 18.3245 18.1247 17.692 18.7407 16.7413C19.2454 15.9618 19.5276 15.0846 19.6609 13.8759C19.7618 12.9627 19.7657 12.8971 19.7657 11.5386C19.7657 10.2376 19.7631 10.1815 19.688 9.61319C19.4784 8.04877 18.9879 6.8427 18.2516 6.08055C17.2667 5.06167 15.3851 4.40248 13.101 4.27679C12.7982 4.25941 11.8716 4.234 11.702 4.23801C11.6347 4.23935 11.5222 4.24202 11.451 4.2447ZM12.8357 5.43874C14.3498 5.51094 15.5883 5.79708 16.5563 6.29582C16.9549 6.50174 17.2189 6.69829 17.4324 6.94967C18.0122 7.62892 18.3823 8.61303 18.5557 9.93677C18.6333 10.5371 18.6579 11.0212 18.6489 11.7967C18.6398 12.5361 18.5919 13.2408 18.5091 13.8625C18.359 14.9763 17.9682 15.8722 17.3625 16.4926C17.1943 16.6638 17.0623 16.7734 16.8539 16.9178C16.4644 17.1866 16.071 17.3524 15.4951 17.4928C15.3631 17.5249 15.1884 17.569 15.1069 17.5904C14.4922 17.7549 13.5526 17.8886 12.6416 17.942C12.3426 17.9594 11.5222 17.9648 11.218 17.9501L11.011 17.9407L10.756 18.2589C9.86309 19.3741 8.91839 20.4892 8.77215 20.6042C8.73721 20.631 8.68027 20.6604 8.64533 20.6697C8.58839 20.6831 8.57804 20.6818 8.54827 20.6591C8.47321 20.6029 8.47451 20.6096 8.47451 19.9263C8.47451 19.58 8.47709 18.9021 8.47968 18.4167L8.48357 17.5369L8.27909 17.466C7.55698 17.22 6.99662 16.8456 6.56051 16.3215C5.94451 15.5794 5.60157 14.6086 5.48509 13.2809C5.42427 12.5762 5.42427 11.2485 5.48509 10.4462C5.59639 8.99411 5.93415 7.9418 6.54109 7.16093C6.84004 6.77584 7.18556 6.50174 7.72909 6.22228C8.56121 5.79307 9.70262 5.51762 10.9851 5.43874C11.1132 5.43071 11.253 5.42269 11.2957 5.42002C11.4329 5.41066 12.5406 5.42536 12.8357 5.43874Z" fill="black"/>
<path d="M11.7968 7.32273C11.7372 7.36284 11.7036 7.42569 11.7036 7.5019C11.7036 7.57946 11.7282 7.63294 11.7838 7.67305C11.8213 7.70113 11.8459 7.70514 12.0401 7.7145C12.735 7.74526 13.2578 7.88164 13.7871 8.16778C14.3242 8.45927 14.8198 8.91924 15.1498 9.43403C15.3349 9.72284 15.5135 10.1226 15.6118 10.4703C15.7205 10.858 15.793 11.3875 15.793 11.79C15.793 11.913 15.7969 11.9411 15.8228 11.9906C15.9082 12.1577 16.1463 12.1256 16.1942 11.9398C16.211 11.8729 16.1929 11.4384 16.1618 11.1736C16.0389 10.1333 15.6675 9.29229 15.0359 8.6224C14.473 8.02605 13.8428 7.6423 13.0973 7.44441C12.7363 7.34947 12.4826 7.31203 12.1112 7.30267C11.8524 7.29599 11.8369 7.29599 11.7968 7.32273Z" fill="black"/>
<path d="M9.0432 7.78088C8.93061 7.79559 8.82708 7.83972 8.70155 7.92529C8.50096 8.06168 8.34696 8.19405 8.14896 8.39863C7.93155 8.6246 7.82285 8.77703 7.75426 8.96021C7.71802 9.05381 7.71155 9.08991 7.70638 9.22229C7.69732 9.46564 7.75296 9.68894 7.93285 10.1262C8.02861 10.3615 8.34696 11.022 8.52426 11.355C8.90085 12.0596 9.36414 12.7536 9.78214 13.2403C9.94908 13.4342 10.3645 13.8768 10.5094 14.0145C10.6673 14.1629 11.0232 14.4584 11.2432 14.6242C11.8721 15.0949 12.3911 15.4078 13.2879 15.8557C13.8664 16.1445 14.2533 16.2822 14.4914 16.2822C14.6286 16.2822 14.8771 16.1846 15.0518 16.0616C15.2252 15.9399 15.4996 15.6618 15.6536 15.4492C15.9266 15.0721 15.9913 14.8047 15.8697 14.548C15.8179 14.4397 15.7687 14.3889 15.4698 14.1429C14.9431 13.7083 14.6208 13.473 14.3038 13.2911C14.0424 13.14 13.8211 13.1173 13.6076 13.2202C13.482 13.2804 13.4393 13.3232 13.2517 13.5719C13.064 13.8206 13.0097 13.8781 12.9268 13.9155C12.7871 13.977 12.6719 13.9824 12.5114 13.9343C11.6496 13.6735 10.8964 13.0544 10.393 12.1907C10.1691 11.8069 9.95555 11.2881 9.95555 11.1277C9.95555 10.9953 10.0099 10.8348 10.0824 10.756C10.1018 10.7346 10.2144 10.6383 10.3347 10.5434C10.578 10.3468 10.6337 10.2786 10.6841 10.1128C10.7243 9.97775 10.7243 9.77318 10.6816 9.64615C10.6531 9.55924 10.336 9.03643 10.1264 8.73023C9.95814 8.48287 9.51038 7.92128 9.44696 7.87716C9.32532 7.79158 9.19591 7.76083 9.0432 7.78088Z" fill="black"/>
<path d="M12.2213 8.40963C12.1592 8.44306 12.1048 8.52863 12.1048 8.59415C12.1048 8.61287 12.1177 8.65566 12.1346 8.68775C12.1682 8.75861 12.2497 8.80809 12.3287 8.80809C12.4646 8.80809 12.8606 8.88698 13.0702 8.95651C13.7574 9.18248 14.2854 9.69058 14.5494 10.3765C14.6542 10.6493 14.7189 11.025 14.7189 11.3673C14.7189 11.477 14.7241 11.5077 14.7461 11.5492C14.8004 11.6494 14.9234 11.6842 15.0217 11.6254C15.1072 11.5759 15.1201 11.5331 15.1201 11.3085C15.1201 10.6105 14.8949 9.95132 14.4834 9.44321C14.0292 8.88163 13.4132 8.542 12.6276 8.42166C12.3313 8.3762 12.2873 8.37486 12.2213 8.40963Z" fill="black"/>
<path d="M12.4914 9.57259C12.4655 9.5873 12.4306 9.62474 12.4151 9.65282C12.3633 9.74909 12.4008 9.88815 12.4901 9.93629C12.5095 9.94698 12.5872 9.96169 12.6648 9.96971C13.2705 10.0379 13.5668 10.3548 13.6302 11.006C13.6393 11.0996 13.6522 11.1664 13.6678 11.1932C13.7467 11.3322 13.9447 11.3296 14.0172 11.1865C14.0444 11.133 14.0469 11.117 14.0392 11.0073C14.0004 10.4604 13.7946 10.0446 13.44 9.80124C13.2588 9.67689 13.066 9.60468 12.7968 9.56323C12.6182 9.53515 12.5484 9.53783 12.4914 9.57259Z" fill="black"/>
</g>
<defs>
<clipPath id="clip0_113_194">
<rect width="15.5294" height="16.9412" fill="white" transform="translate(4.23529 4.23535)"/>
</clipPath>
</defs>
</svg>
